<svg viewBox="0 0 48 48" xmlns="http://www.w3.org/2000/svg" xmlns:xlink="http://www.w3.org/1999/xlink" width="48" height="48">
<defs>



 <path fill="#29d9c2" id="i-430" d="M16,21H3.851l0.83-3H9v1.621l0.55,0.268C9.64,19.941,11.81,21,16,21z M25.551,19.889L25,19.621V18h-2v1.621l-0.549,0.268 C22.361,19.941,20.19,21,16,21h16C27.811,21,25.641,19.941,25.551,19.889z M9,12.379l0.55-0.27C9.64,12.059,11.81,11,16,11 s6.361,1.059,6.451,1.109L23,12.379V16h2v-3.621l0.551-0.27C25.641,12.059,27.811,11,32,11c4.191,0,6.361,1.059,6.451,1.109 L39,12.379V16h4V4h-2v3H7V4H5v12h4V12.379z M0.03,36L0,41h4v3h2v-3h36v3h2v-3h4v-5H0.03z M43.311,18H39v1.621l-0.549,0.268 C38.361,19.941,36.191,21,32,21h12.141L43.311,18z M44.691,23H3.3L0.24,34h47.479L44.691,23z"/> 
</defs>

<use x="0" y="0" xlink:href="#i-430"/>

</svg>