<?xml version="1.0" encoding="UTF-8" standalone="no"?>
<!-- Created with Inkscape (http://www.inkscape.org/) -->

<svg
   width="64pt"
   height="64pt"
   viewBox="0 0 22.577778 22.577778"
   version="1.1"
   id="svg831"
   inkscape:version="1.1.2 (0a00cf5339, 2022-02-04)"
   sodipodi:docname="21 - Living Room.svg"
   inkscape:export-filename="/media/taufikramadhan/Data/Tr Design Studio/Project Design/TR Creative Design/Icon Design/Project Hiring/Icon Icons/024 - Real Estate And Building/5 - Send/3 - Flat/21 - Living Room.png"
   inkscape:export-xdpi="576"
   inkscape:export-ydpi="576"
   xmlns:inkscape="http://www.inkscape.org/namespaces/inkscape"
   xmlns:sodipodi="http://sodipodi.sourceforge.net/DTD/sodipodi-0.dtd"
   xmlns="http://www.w3.org/2000/svg"
   xmlns:svg="http://www.w3.org/2000/svg"
   xmlns:rdf="http://www.w3.org/1999/02/22-rdf-syntax-ns#"
   xmlns:cc="http://creativecommons.org/ns#"
   xmlns:dc="http://purl.org/dc/elements/1.1/">
  <defs
     id="defs825">
    <pattern
       id="EMFhbasepattern"
       patternUnits="userSpaceOnUse"
       width="6"
       height="6"
       x="0"
       y="0" />
    <pattern
       id="EMFhbasepattern-9"
       patternUnits="userSpaceOnUse"
       width="6"
       height="6"
       x="0"
       y="0" />
    <pattern
       id="EMFhbasepattern-0"
       patternUnits="userSpaceOnUse"
       width="6"
       height="6"
       x="0"
       y="0" />
    <pattern
       id="EMFhbasepattern-7"
       patternUnits="userSpaceOnUse"
       width="6"
       height="6"
       x="0"
       y="0" />
    <pattern
       id="EMFhbasepattern-2"
       patternUnits="userSpaceOnUse"
       width="6"
       height="6"
       x="0"
       y="0" />
    <pattern
       id="EMFhbasepattern-98"
       patternUnits="userSpaceOnUse"
       width="6"
       height="6"
       x="0"
       y="0" />
    <pattern
       id="EMFhbasepattern-6"
       patternUnits="userSpaceOnUse"
       width="6"
       height="6"
       x="0"
       y="0" />
    <pattern
       id="EMFhbasepattern-01"
       patternUnits="userSpaceOnUse"
       width="6"
       height="6"
       x="0"
       y="0" />
    <pattern
       id="EMFhbasepattern-07"
       patternUnits="userSpaceOnUse"
       width="6"
       height="6"
       x="0"
       y="0" />
    <pattern
       id="EMFhbasepattern-8"
       patternUnits="userSpaceOnUse"
       width="6"
       height="6"
       x="0"
       y="0" />
    <pattern
       id="EMFhbasepattern-4"
       patternUnits="userSpaceOnUse"
       width="6"
       height="6"
       x="0"
       y="0" />
    <pattern
       id="EMFhbasepattern-40"
       patternUnits="userSpaceOnUse"
       width="6"
       height="6"
       x="0"
       y="0" />
    <pattern
       id="EMFhbasepattern-08"
       patternUnits="userSpaceOnUse"
       width="6"
       height="6"
       x="0"
       y="0" />
    <pattern
       id="EMFhbasepattern-04"
       patternUnits="userSpaceOnUse"
       width="6"
       height="6"
       x="0"
       y="0" />
    <pattern
       id="EMFhbasepattern-014"
       patternUnits="userSpaceOnUse"
       width="6"
       height="6"
       x="0"
       y="0" />
    <pattern
       id="EMFhbasepattern-27"
       patternUnits="userSpaceOnUse"
       width="6"
       height="6"
       x="0"
       y="0" />
    <pattern
       id="EMFhbasepattern-09"
       patternUnits="userSpaceOnUse"
       width="6"
       height="6"
       x="0"
       y="0" />
    <pattern
       id="EMFhbasepattern-5"
       patternUnits="userSpaceOnUse"
       width="6"
       height="6"
       x="0"
       y="0" />
    <pattern
       id="EMFhbasepattern-018"
       patternUnits="userSpaceOnUse"
       width="6"
       height="6"
       x="0"
       y="0" />
  </defs>
  <sodipodi:namedview
     id="base"
     pagecolor="#ffffff"
     bordercolor="#666666"
     borderopacity="1.0"
     inkscape:pageopacity="0.0"
     inkscape:pageshadow="2"
     inkscape:zoom="2.9121094"
     inkscape:cx="18.543259"
     inkscape:cy="36.571428"
     inkscape:document-units="pt"
     inkscape:current-layer="layer1"
     showgrid="false"
     units="pt"
     inkscape:window-width="1366"
     inkscape:window-height="719"
     inkscape:window-x="0"
     inkscape:window-y="26"
     inkscape:window-maximized="1"
     inkscape:pagecheckerboard="true"
     inkscape:showpageshadow="false"
     inkscape:object-paths="true"
     inkscape:snap-intersection-paths="true"
     inkscape:snap-smooth-nodes="true"
     inkscape:snap-midpoints="true"
     showguides="true"
     inkscape:snap-bbox="true"
     inkscape:bbox-nodes="true"
     inkscape:snap-nodes="false"
     inkscape:snap-global="true"
     inkscape:snap-others="false">
    <inkscape:grid
       type="xygrid"
       id="grid1378" />
    <sodipodi:guide
       position="0.97013831,21.607643"
       orientation="78.000048,0"
       id="guide1380"
       inkscape:locked="false" />
    <sodipodi:guide
       position="0.97013831,0.97013129"
       orientation="0,78.000005"
       id="guide1382"
       inkscape:locked="false" />
    <sodipodi:guide
       position="21.607639,0.97013129"
       orientation="-78.000048,0"
       id="guide1384"
       inkscape:locked="false" />
    <sodipodi:guide
       position="21.607639,21.607643"
       orientation="0,-78.000005"
       id="guide1386"
       inkscape:locked="false" />
  </sodipodi:namedview>
  <metadata
     id="metadata828">
    <rdf:RDF>
      <cc:Work
         rdf:about="">
        <dc:format>image/svg+xml</dc:format>
        <dc:type
           rdf:resource="http://purl.org/dc/dcmitype/StillImage" />
      </cc:Work>
    </rdf:RDF>
  </metadata>
  <g
     inkscape:label="Icon"
     inkscape:groupmode="layer"
     id="layer1"
     transform="translate(0,-274.42223)">
    <g
       id="g1316"
       style="display:inline;stroke-width:0.794872"
       transform="matrix(1.2580642,0,0,1.2580642,0.63857837,-154.03162)">
      <g
         id="g442818"
         style="display:inline;stroke-width:0.794872">
        <path
           style="color:#000000;fill:#000000;stroke-width:0.794872;stroke-linecap:round;stroke-linejoin:round;stroke-miterlimit:1.5;-inkscape-stroke:none"
           d="m 9.7890625,344.24805 a 0.2645835,0.2645835 0 0 0 -0.2636719,0.26367 v 1.32226 c 0,0 -10e-4,0.82593 -0.2089843,1.79493 a 0.2645835,0.2645835 0 0 0 0.203125,0.31445 0.2645835,0.2645835 0 0 0 0.3144531,-0.20313 c 0.2209016,-1.02919 0.2207036,-1.90625 0.2207036,-1.90625 v -1.32226 a 0.2645835,0.2645835 0 0 0 -0.2656255,-0.26367 z"
           id="path5969" />
        <path
           style="color:#000000;fill:#e2f0fa;stroke-width:0.794872;stroke-linecap:round;stroke-linejoin:round;stroke-miterlimit:1.5;-inkscape-stroke:none"
           d="m 7.4082031,344.24805 a 0.26460996,0.26460996 0 0 0 -0.2636719,0.26367 v 10.31836 a 0.26460996,0.26460996 0 0 0 0.2636719,0.26562 h 7.9374999 a 0.26460996,0.26460996 0 0 0 0.265625,-0.26562 v -10.31836 a 0.26460996,0.26460996 0 0 0 -0.265625,-0.26367 z"
           id="path263277" />
        <path
           style="color:#000000;fill:#fda35d;fill-opacity:1;stroke-width:0.794872;stroke-linecap:round;stroke-linejoin:round;stroke-miterlimit:1.5;-inkscape-stroke:none"
           d="m 7.4082031,350.06836 a 0.26460996,0.26460996 0 0 0 -0.2636719,0.26367 v 4.49805 a 0.26460996,0.26460996 0 0 0 0.2636719,0.26562 h 1.8515625 a 0.26460996,0.26460996 0 0 0 0.265625,-0.26562 v -0.79297 c 0,-1.34231 -0.2738104,-2.30757 -0.5527343,-2.93945 -0.278924,-0.63188 -0.5800782,-0.94922 -0.5800782,-0.94922 a 0.26460996,0.26460996 0 0 0 -0.1914062,-0.0801 z"
           id="path263283" />
        <path
           style="color:#000000;fill:#fda35d;stroke-width:0.794872;stroke-linecap:round;stroke-linejoin:round;stroke-miterlimit:1.5;-inkscape-stroke:none"
           d="m 14.552734,350.06836 a 0.26460996,0.26460996 0 0 0 -0.191406,0.0801 c 0,0 -0.301154,0.31734 -0.580078,0.94922 -0.278924,0.63188 -0.552734,1.59714 -0.552734,2.93945 v 0.79297 a 0.26460996,0.26460996 0 0 0 0.265625,0.26562 h 1.851562 a 0.26460996,0.26460996 0 0 0 0.265625,-0.26562 v -4.49805 a 0.26460996,0.26460996 0 0 0 -0.265625,-0.26367 z"
           id="path263289" />
        <path
           style="color:#000000;fill:#fda35d;stroke-width:0.794872;stroke-linecap:round;stroke-linejoin:round;stroke-miterlimit:1.5;-inkscape-stroke:none"
           d="m 12.964844,344.24805 a 0.26460996,0.26460996 0 0 0 -0.265625,0.26367 v 1.32226 c 0,0 7.92e-4,0.83198 0.205078,1.82618 0.204286,0.99419 0.603288,2.17559 1.482422,2.8789 a 0.26460996,0.26460996 0 0 0 0.166015,0.0586 h 0.792969 a 0.26460996,0.26460996 0 0 0 0.265625,-0.26563 v -5.82031 a 0.26460996,0.26460996 0 0 0 -0.265625,-0.26367 z"
           id="path263299" />
        <path
           style="color:#000000;fill:#fda35d;stroke-width:0.794872;stroke-linecap:round;stroke-linejoin:round;stroke-miterlimit:1.5;-inkscape-stroke:none"
           d="m 7.4082031,344.24805 a 0.26460996,0.26460996 0 0 0 -0.2636719,0.26367 v 5.82031 a 0.26460996,0.26460996 0 0 0 0.2636719,0.26563 h 0.7929688 a 0.26460996,0.26460996 0 0 0 0.1660156,-0.0586 c 0.8791337,-0.70331 1.2781357,-1.88471 1.4824219,-2.8789 0.2042866,-0.9942 0.2050776,-1.82618 0.2050786,-1.82618 v -1.32226 a 0.26460996,0.26460996 0 0 0 -0.2656255,-0.26367 z"
           id="path263313" />
        <path
           style="color:#000000;fill:#70c2ef;stroke-width:0.794872;stroke-linecap:round;stroke-linejoin:round;stroke-miterlimit:1.5;-inkscape-stroke:none"
           d="m 1.9589844,348.48047 a 0.26460996,0.26460996 0 0 0 -0.265625,0.26562 v 3.96875 a 0.26460996,0.26460996 0 0 0 0.265625,0.26368 h 4.0058593 a 0.26460996,0.26460996 0 0 0 0.2636719,-0.26368 v -3.17578 a 0.26460996,0.26460996 0 0 0 -0.015625,-0.0898 c 0,0 -0.3709726,-0.96875 -1.3925781,-0.96875 z"
           id="path263323" />
        <path
           style="color:#000000;fill:#45a0d9;stroke-width:0.794872;stroke-linecap:round;stroke-linejoin:round;stroke-miterlimit:1.5;-inkscape-stroke:none"
           d="m 1.3867187,348.2168 c -0.245631,0 -0.42635154,0.0253 -0.58007807,0.10937 -0.15372654,0.0841 -0.2578125,0.26953 -0.25781251,0.41992 v 2.83008 a 0.26460996,0.26460996 0 0 0 0.26562501,0.26563 H 1.9589844 a 0.26460996,0.26460996 0 0 0 0.2636719,-0.26563 v -2.83008 c 0,-0.15039 -0.104086,-0.33586 -0.2578126,-0.41992 -0.1537265,-0.0841 -0.3324938,-0.10937 -0.578125,-0.10937 z"
           id="path263333" />
        <path
           style="color:#000000;fill:#000000;stroke-width:0.794872;stroke-linecap:round;stroke-linejoin:round;stroke-miterlimit:1.5;-inkscape-stroke:none"
           d="m 1.4296875,353.50781 a 0.2645835,0.2645835 0 0 0 -0.265625,0.26367 0.2645835,0.2645835 0 0 0 0.265625,0.26563 H 10.5 A 0.2645835,0.2645835 0 0 0 10.765625,353.77148 0.2645835,0.2645835 0 0 0 10.5,353.50781 Z"
           id="path9692" />
        <path
           style="color:#000000;fill:#45a0d9;stroke-width:0.794872;stroke-linecap:round;stroke-linejoin:round;stroke-miterlimit:1.5;-inkscape-stroke:none"
           d="m 1.9589844,351.65625 a 0.26460996,0.26460996 0 0 0 -0.265625,0.26367 v 1.85156 a 0.26460996,0.26460996 0 0 0 0.265625,0.26563 h 4.0058593 a 0.26460996,0.26460996 0 0 0 0.2636719,-0.26563 v -1.05664 a 0.26460996,0.26460996 0 0 0 -0.015625,-0.0898 c 0,0 -0.097798,-0.26372 -0.3554687,-0.50195 -0.2576708,-0.23823 -0.6907135,-0.4668 -1.3242188,-0.4668 z"
           id="path263343" />
        <path
           style="color:#000000;fill:#70c2ef;stroke-width:0.794872;stroke-linecap:round;stroke-linejoin:round;stroke-miterlimit:1.5;-inkscape-stroke:none"
           d="m 7.109375,348.48047 c -1.0216055,0 -1.3945312,0.96875 -1.3945313,0.96875 a 0.26460996,0.26460996 0 0 0 -0.015625,0.0898 v 3.17578 a 0.26460996,0.26460996 0 0 0 0.265625,0.26368 h 4.0058594 a 0.26460996,0.26460996 0 0 0 0.2656249,-0.26368 v -3.96875 a 0.26460996,0.26460996 0 0 0 -0.2656249,-0.26562 z"
           id="path263357" />
        <path
           style="color:#000000;fill:#45a0d9;stroke-width:0.794872;stroke-linecap:round;stroke-linejoin:round;stroke-miterlimit:1.5;-inkscape-stroke:none"
           d="m 7.3964844,351.65625 c -0.6335054,0 -1.0685011,0.22857 -1.3261719,0.4668 -0.2576708,0.23823 -0.3554687,0.50195 -0.3554688,0.50195 a 0.26460996,0.26460996 0 0 0 -0.015625,0.0898 v 1.05664 a 0.26460996,0.26460996 0 0 0 0.265625,0.26563 h 4.0156251 a 0.26460996,0.26460996 0 0 0 0.2636722,-0.26367 v -1.85352 a 0.26460996,0.26460996 0 0 0 -0.2636722,-0.26367 z"
           id="path263363" />
        <path
           style="color:#000000;fill:#45a0d9;stroke-width:0.794872;stroke-linecap:round;stroke-linejoin:round;stroke-miterlimit:1.5;-inkscape-stroke:none"
           d="m 11.115234,352.04687 c 0.146938,5.8e-4 0.266202,-0.11868 0.265625,-0.26562 v -3.03516 c -2e-6,-0.15039 -0.104086,-0.33586 -0.257812,-0.41992 -0.153726,-0.0841 -0.334448,-0.10937 -0.580078,-0.10937 -0.245631,0 -0.426352,0.0253 -0.5800784,0.10937 -0.1537262,0.0841 -0.2558573,0.26953 -0.2558593,0.41992 v 3.03516 c -5.735e-4,0.14617 0.1174971,0.26512 0.2636718,0.26562 z"
           id="path263373"
           sodipodi:nodetypes="ccccsccccc" />
        <path
           style="color:#000000;fill:#349951;stroke-width:0.794872;stroke-linecap:round;stroke-linejoin:round;stroke-miterlimit:1.5;-inkscape-stroke:none"
           d="m 3.1875,344.46875 c -0.3041671,0.008 -0.6657956,0.0193 -0.9296875,0.2832 -0.263886,0.26389 -0.2727969,0.62553 -0.28125,0.92969 C 1.9681094,345.9858 2,346.24609 2,346.24609 a 0.26460996,0.26460996 0 0 0 0.2304688,0.23047 c 0,0 0.2602897,0.0319 0.5644531,0.0234 0.3041634,-0.008 0.6657979,-0.0174 0.9296875,-0.28125 0.2638912,-0.26389 0.2747444,-0.62747 0.2832031,-0.93164 0.00846,-0.30417 -0.025391,-0.5625 -0.025391,-0.5625 A 0.26460996,0.26460996 0 0 0 3.7519527,344.4941 c 0,0 -0.260286,-0.0339 -0.5644531,-0.0254 z"
           id="path263387" />
        <path
           style="color:#000000;fill:#50b86b;stroke-width:0.794872;stroke-linecap:round;stroke-linejoin:round;stroke-miterlimit:1.5;-inkscape-stroke:none"
           d="m 1.5039062,344.76953 c -0.2479311,-0.007 -0.4589843,0.0195 -0.4589843,0.0195 a 0.26460996,0.26460996 0 0 0 -0.23046877,0.23047 c 0,0 -0.0264261,0.21106 -0.0195313,0.45899 0.006895,0.24793 0.006538,0.54755 0.24023437,0.78125 0.2336937,0.23369 0.5333224,0.23334 0.78125,0.24023 0.2479277,0.007 0.4589844,-0.0195 0.4589844,-0.0195 A 0.26460996,0.26460996 0 0 0 2.5058594,346.25 c 0,0 0.026422,-0.21106 0.019531,-0.45898 -0.00689,-0.24793 -0.00654,-0.54561 -0.2402343,-0.7793 -0.2336945,-0.23369 -0.5333189,-0.23529 -0.7812499,-0.24219 z"
           id="path263393" />
        <path
           style="color:#000000;fill:#70c2ef;stroke-width:0.794872;stroke-linecap:round;stroke-linejoin:round;stroke-miterlimit:1.5;-inkscape-stroke:none"
           d="m 4.7617187,346.09961 c -0.289119,0 -0.5293004,0.24018 -0.5292968,0.5293 v 0.79296 a 0.26460996,0.26460996 0 0 0 0.265625,0.26563 h 1.3222656 a 0.26460996,0.26460996 0 0 0 0.265625,-0.26563 v -0.79296 c 3.6e-6,-0.28912 -0.2401778,-0.5293 -0.5292969,-0.5293 z"
           id="path263399" />
        <path
           style="color:#000000;fill:#dc1c4b;stroke-width:0.794872;stroke-linecap:round;stroke-linejoin:round;stroke-miterlimit:1.5;-inkscape-stroke:none"
           d="m 1.6464844,345.97266 c -0.1575941,0 -0.2938448,0.056 -0.40625,0.1582 -0.1124053,0.10223 -0.2037959,0.29681 -0.140625,0.48633 l 0.296875,0.88867 a 0.26460996,0.26460996 0 0 0 0.25,0.18164 h 1.1855469 a 0.26460996,0.26460996 0 0 0 0.25,-0.18164 l 0.296875,-0.88867 a 0.26460996,0.26460996 0 0 0 0.013672,-0.084 c 0,-0.30613 -0.2544075,-0.56054 -0.5605468,-0.56054 z"
           id="path263413" />
        <path
           style="color:#000000;fill:#2276bc;fill-opacity:1;stroke-width:0.794872;stroke-linecap:round;stroke-linejoin:round;stroke-miterlimit:1.5;-inkscape-stroke:none"
           d="m 1.3867187,350.86133 c -0.82024942,0 -1.13374036,0.4805 -1.09570307,0.82422 l 0.23437499,2.11718 c 0.0320344,0.28948 0.28760753,0.49805 0.57421878,0.49805 H 1.671875 c 0.2864262,0 0.5472828,-0.20814 0.5761719,-0.50195 l 0.2324219,-2.11328 a 0.26460996,0.26460996 0 0 0 0.00195,-0.004 c 0.033077,-0.3364 -0.2754925,-0.82031 -1.0957032,-0.82031 z"
           id="path263439" />
        <path
           style="color:#000000;fill:#2276bc;fill-opacity:1;stroke-width:0.794872;stroke-linecap:round;stroke-linejoin:round;stroke-miterlimit:1.5;-inkscape-stroke:none"
           d="m 10.542969,350.86133 c -0.8202122,0 -1.128786,0.4839 -1.0957034,0.82031 a 0.26460996,0.26460996 0 0 0 0,0.004 l 0.234375,2.11328 c 0.028887,0.29381 0.2897345,0.50195 0.5761724,0.50195 h 0.572265 c 0.286438,0 0.545332,-0.20814 0.574219,-0.50195 l 0.234375,-2.11328 a 0.26460996,0.26460996 0 0 0 0,-0.004 c 0.03307,-0.33639 -0.275495,-0.82031 -1.095703,-0.82031 z"
           id="path263445" />
      </g>
      <path
         style="color:#000000;display:inline;fill:#9ebed1;stroke-width:0.794872;stroke-linecap:round;stroke-linejoin:round;stroke-miterlimit:1.5;-inkscape-stroke:none"
         d="m 11.376953,345.30664 a 0.2645835,0.2645835 0 0 0 -0.263672,0.26367 v 9.25977 a 0.2645835,0.2645835 0 0 0 0.263672,0.26562 0.2645835,0.2645835 0 0 0 0.265625,-0.26562 v -9.25977 a 0.2645835,0.2645835 0 0 0 -0.265625,-0.26367 z"
         id="path8073" />
      <path
         id="rect12856"
         style="color:#000000;fill:#000000;stroke-width:3.00424;stroke-linecap:round;stroke-linejoin:round;stroke-miterlimit:1.5;-inkscape-stroke:none"
         d="m 25.001953,241.57227 c -0.555337,-0.002 -1.006076,0.44856 -1.003906,1.0039 -0.54924,0.002 -0.993956,0.44686 -0.996094,0.9961 -0.0022,0.55228 0.44381,1.00175 0.996094,1.0039 0.0022,0.55229 0.451617,0.99826 1.003906,0.9961 0.54924,-0.002 0.993956,-0.44686 0.996094,-0.9961 h 1.005859 v 13.9961 h -0.134765 c -2.131697,0 -3.513637,1.11549 -4.326172,2.11523 -0.810449,-0.9999 -2.19207,-2.11523 -4.324219,-2.11523 H 8.0566406 c -0.1642793,-0.23823 -0.3802726,-0.44696 -0.6308594,-0.58399 -0.5810135,-0.31786 -1.2571769,-0.41211 -2.1855468,-0.41211 -0.9283691,0 -1.6103926,0.0944 -2.1914063,0.41211 -0.5810137,0.31786 -0.9746093,1.01949 -0.9746093,1.58789 v 8.95899 c -0.7544399,0.63119 -1.0506618,1.46315 -0.9746094,2.15039 l 0.8867187,8.00195 c 0.1210749,1.0941 1.0866668,1.88281 2.1699219,1.88281 h 0.080078 v 1.00391 H 2 c -0.5522849,-0.002 -1.0017507,0.44381 -1.00390625,0.99609 C 0.99391843,283.12565 1.4446587,283.57639 2,283.57422 h 60 c 0.552288,-0.002 0.998257,-0.45162 0.996094,-1.00391 C 62.99395,282.02107 62.549236,281.57636 62,281.57422 H 59.003906 V 244.57617 H 60 c 0.0021,0.54924 0.446854,0.99396 0.996094,0.9961 0.552289,0.002 1.001756,-0.44381 1.003906,-0.9961 0.552284,-0.002 0.998252,-0.45162 0.996094,-1.0039 -0.0021,-0.54924 -0.446854,-0.99396 -0.996094,-0.9961 0.0022,-0.55534 -0.448569,-1.00607 -1.003906,-1.0039 -0.552284,0.002 -0.998252,0.45162 -0.996094,1.0039 H 25.998047 c 0.0022,-0.55228 -0.44381,-1.00175 -0.996094,-1.0039 z m -12.742187,1.83203 c -0.07036,8.2e-4 -0.141041,0.004 -0.212891,0.006 -1.149608,0.0302 -2.5162852,0.0729 -3.5136719,1.07031 -0.1751001,0.1751 -0.3185536,0.36194 -0.4394531,0.55664 -0.7752857,-0.46221 -1.6562985,-0.46925 -2.4101562,-0.49023 -0.9370625,-0.0265 -1.734375,0.0723 -1.734375,0.0723 -0.4559613,0.0559 -0.8152438,0.41513 -0.8710938,0.87109 0,0 -0.1002778,0.79927 -0.074219,1.73633 0.02606,0.93706 0.024941,2.0679 0.9082032,2.95117 0.091642,0.0917 0.1866919,0.17444 0.2832031,0.24805 v 0.002 c -0.1272194,0.33613 -0.1659017,0.72103 -0.039063,1.10157 l 0.6816406,2.04492 H 4.0019531 c -0.5530462,-0.003 -1.003706,0.44304 -1.0058593,0.99609 -0.00218,0.55611 0.4497555,1.00717 1.0058593,1.00391 H 23.001953 c 0.552288,-0.002 0.998257,-0.45162 0.996094,-1.00391 -0.0021,-0.54924 -0.446858,-0.99395 -0.996094,-0.99609 v -2 c 1.4e-5,-1.09274 -0.907259,-2 -2,-2 h -3.005859 c -1.09274,0 -2.000014,0.90726 -2,2 v 2 h -3.908203 l 0.683593,-2.04492 c 0.08241,-0.2391 0.07013,-0.49736 0.0098,-0.72266 0.464891,-0.15319 0.909172,-0.39556 1.296875,-0.7832 0.997384,-0.99738 1.038343,-2.37187 1.070313,-3.52149 0.03197,-1.14962 -0.09766,-2.125 -0.09766,-2.125 -0.05585,-0.45596 -0.415132,-0.81524 -0.871093,-0.87109 0,0 -0.864596,-0.11396 -1.919922,-0.10156 z m 16.74414,1.17187 h 6.998047 v 3.99414 c 0,0 -0.0049,3.12084 -0.791015,6.78321 -0.116463,0.54024 0.227234,1.07154 0.767578,1.1875 0.540246,0.11641 1.073501,-0.22737 1.189453,-0.76758 0.834903,-3.88985 0.833984,-7.20313 0.833984,-7.20313 h 4.001953 v 7.00391 c 0.0019,0.54958 0.446498,0.99616 0.996094,0.99805 0.552476,0.002 1.002001,-0.44556 1.003906,-0.99805 v -7.00391 h 3.992188 c 0,0 0.0033,3.14279 0.77539,6.90039 0.623513,3.03442 1.727438,6.53101 3.878907,9.16407 -0.379716,0.14077 -0.650865,0.50667 -0.652344,0.93554 -0.0022,0.55537 0.448535,1.0061 1.003906,1.00391 h 0.06055 c -0.308548,0.5138 -0.647125,1.14236 -0.976562,1.88867 -1.054201,2.38821 -2.087891,6.03803 -2.087891,11.11133 v 2 h -9.146485 v -1.00391 h 0.08008 c 1.0826,0 2.062695,-0.78602 2.171875,-1.89648 l 0.884765,-7.98828 v -0.002 -0.002 -0.002 -0.002 -0.002 -0.002 -0.002 -0.002 c 0.06594,-0.6707 -0.227543,-1.49627 -0.974609,-2.12695 v -8.9668 c -8e-6,-0.5684 -0.393598,-1.27018 -0.97461,-1.58789 -0.581011,-0.31786 -1.26304,-0.41211 -2.191406,-0.41211 -0.928369,0 -1.612346,0.0944 -2.193359,0.41211 -0.250586,0.13709 -0.464237,0.34577 -0.626953,0.58399 H 29.00391 Z m 8.998047,0 h 9.994141 v 2 h -9.994141 z m 11.996094,0 h 7.005859 v 19.99805 h -1.644531 c -2.512306,-2.18994 -3.927174,-6.07736 -4.630859,-9.50195 -0.727892,-3.54244 -0.730469,-6.50196 -0.730469,-6.50196 z m -36.894531,0.87888 c 0.144319,1.05545 -0.0628,2.0502 -0.435545,3.15039 -1.07878,0.45856 -2.102104,0.49249 -3.1230471,0.44727 -0.082315,-1.10459 0.025285,-2.09301 0.3984372,-3.16406 1.1425739,-0.4971 2.0610299,-0.4993 3.1601549,-0.4336 z m -5.6250066,3.61335 c -0.702601,0.0988 -1.4501759,-0.0999 -2.1484313,-0.30663 -0.029707,-0.0302 -0.3029929,-0.82462 -0.3242187,-1.58789 -0.00892,-0.32088 0.00788,-0.35766 0.021484,-0.60352 0.2367742,-0.0175 0.3818643,-0.0234 0.6054691,-0.0234 0.763268,0.0227 1.5562323,0.29473 1.5859375,0.32421 0.021256,0.0216 0.1665897,0.43846 0.2558594,0.95313 z m 3.2988356,2.10735 -0.7968752,2.39844 H 6.9472656 l -0.8125,-2.44336 z m 7.218749,0.39847 h 3.005859 v 2 h -3.005859 z m -12.7771791,8.00825 c 0.7313687,-0.006 1.0722893,0.10592 1.1814757,0.15581 v 7.92774 c -0.3518859,-0.0617 -0.738254,-0.0957 -1.1601562,-0.0957 -0.4243764,0 -0.8119144,0.0336 -1.1660156,0.0957 v -7.92774 c 0.1022173,-0.0464 0.4133274,-0.14951 1.1446961,-0.15581 z m 34.4998351,-0.006 c 0.0413,-8.4e-4 0.08479,0 0.128906,0 0.710283,0 1.056984,0.1126 1.166016,0.16211 v 7.92969 c -0.353595,-0.0625 -0.741566,-0.0977 -1.166016,-0.0977 -0.421103,0 -0.806853,0.0342 -1.158203,0.0957 v -7.92774 c 0.104917,-0.0468 0.409781,-0.14955 1.029297,-0.16211 z m 6.388672,1.55079 -1.003906,2 c -0.248133,0.49504 -0.04674,1.09747 0.449218,1.34375 0.495558,0.24786 1.098179,0.0455 1.34375,-0.45117 l 0.998047,-2 c 0.248969,-0.49347 0.05039,-1.09533 -0.443359,-1.34375 -0.542375,-0.31314 -1.100237,0.0294 -1.34375,0.45117 z M 8.4003906,260.57261 H 18.21875 c 2.230305,0 3.106963,1.68098 3.322266,2.1914 v 9.09375 c -0.996601,-0.70374 -2.448582,-1.2832 -4.408204,-1.2832 H 9.3886719 c 0.030704,-0.65466 -0.2709485,-1.43513 -0.9882813,-2.03711 z m 18.4687504,0 H 36.6875 v 7.96484 c -0.716057,0.60139 -1.016473,1.38305 -0.986328,2.03711 h -7.746094 c -1.959622,0 -3.415666,0.57946 -4.414062,1.2832 v -9.0957 c 0.218308,-0.51271 1.100605,-2.18945 3.328125,-2.18945 z m -10.861329,2.99804 c -0.211874,0.0102 -0.415021,0.0875 -0.580078,0.22071 l -0.457031,0.36718 -0.457031,-0.36718 c -0.430565,-0.34459 -1.058819,-0.27556 -1.404297,0.15429 -0.348126,0.43201 -0.278006,1.06484 0.15625,1.41016 l 0.105469,0.084 -0.105469,0.0859 c -0.429214,0.34475 -0.499055,0.97157 -0.15625,1.40234 0.344893,0.43047 0.973217,0.50038 1.404297,0.15625 l 0.457031,-0.36523 0.457031,0.36523 c 0.432008,0.34812 1.064839,0.278 1.410157,-0.15625 0.341453,-0.4323 0.268967,-1.05934 -0.16211,-1.40234 l -0.105469,-0.0859 0.105469,-0.084 c 0.436116,-0.34356 0.50889,-0.9766 0.16211,-1.41016 -0.200399,-0.25107 -0.509215,-0.39058 -0.830079,-0.375 z m 13.013672,0 c -0.03328,3.4e-4 -0.06653,0.002 -0.09961,0.006 -0.264103,0.0289 -0.505845,0.16173 -0.671875,0.36914 -0.348126,0.43201 -0.278006,1.06484 0.15625,1.41016 l 0.105469,0.084 -0.105469,0.0859 c -0.429214,0.34475 -0.499055,0.97157 -0.15625,1.40234 0.345903,0.43364 0.978663,0.50287 1.410156,0.1543 l 0.455078,-0.36328 0.453125,0.36328 c 0.431493,0.34857 1.064254,0.27934 1.410157,-0.1543 0.343259,-0.43025 0.274298,-1.05701 -0.154297,-1.40234 l -0.105469,-0.0859 0.105469,-0.084 c 0.433638,-0.3459 0.502874,-0.97867 0.154297,-1.41016 -0.16603,-0.20741 -0.407772,-0.34023 -0.671875,-0.36914 -0.264893,-0.0296 -0.530656,0.0477 -0.738282,0.21485 l -0.453125,0.36328 -0.455078,-0.36328 c -0.180832,-0.14545 -0.406621,-0.22348 -0.638672,-0.22071 z m 19.992188,0.002 c -0.111983,-0.002 -0.223561,0.0142 -0.330078,0.0488 -0.250935,0.0845 -0.458138,0.26496 -0.576172,0.50196 l -2,4.00195 c -0.24765,0.49299 -0.04926,1.09341 0.443359,1.3418 0.495036,0.24813 1.097466,0.0467 1.34375,-0.44922 l 2,-3.99414 c 0.247857,-0.49556 0.04552,-1.09818 -0.451172,-1.34375 -0.133399,-0.0675 -0.280229,-0.10418 -0.429687,-0.10742 z m 6.449219,3.00195 h 1.541015 v 15 h -5.005859 v -2 c 0,-4.80333 0.974121,-8.15618 1.919922,-10.29883 0.631802,-1.43131 1.221842,-2.28808 1.544922,-2.70117 z M 6.5039062,278.48058 c -0.00173,0.0189 -0.042957,0.0898 -0.1855468,0.0898 H 4.15625 c -0.141891,0 -0.1819261,-0.071 -0.1855469,-0.10351 l -0.8828125,-7.97461 c -1.16e-5,0.002 -5.04e-5,-0.006 0,-0.006 0.00293,-0.085 0.097158,-0.91602 2.1523438,-0.91602 v 1.5e-4 c 1.9829433,0 2.1407801,0.75804 2.1484375,0.90039 z m 31.1952658,-8.00236 c 0.002,-0.11743 0.12252,-0.90821 2.148437,-0.90821 l 4.7e-5,3.8e-4 c 2.078882,0 2.155889,0.83671 2.154297,0.91992 l -0.884765,7.99027 c -0.0017,0.0189 -0.04298,0.0898 -0.185547,0.0898 h -2.16211 c -0.142564,0 -0.181855,-0.0725 -0.183593,-0.0898 z m -28.5331564,2.09803 h 7.9667964 c 1.932077,0 2.997949,0.6328 3.646485,1.23242 0.452626,0.41847 0.670136,0.78702 0.761719,0.97461 v 2.78907 H 8.6171875 Z m 18.7890624,0 h 7.960938 l 0.552734,4.9961 H 23.541016 v -2.78907 c 0.09158,-0.18759 0.307139,-0.55614 0.759765,-0.97461 0.648536,-0.59962 1.722221,-1.23242 3.654297,-1.23242 z M 8.1816406,279.57422 H 36.908203 c 0.395732,0.61112 1.104257,0.99609 1.861328,0.99609 h 0.08203 v 1.00391 H 6.2382812 v -1.00391 h 0.080078 c 0.7571789,0 1.467582,-0.38478 1.8632814,-0.99609 z"
         transform="matrix(0.26458334,0,0,0.26458334,0,280.06666)"
         sodipodi:nodetypes="scscscccscsccscscccscccsccsccccscscsccsccsccccssccsccsccscsssscccccscccccccccscccccccsccccsscccscccccccccccccscccccccccccccscccccccccsccccccccccccccccccsccccsccsccccccccccccsccscccscccsccsccccccccccccccccccccccccccccsccccccccccscccccccssccccssccssccccccccccccsscccssccccsccccssccsccccsc" />
    </g>
  </g>
</svg>
