<?xml version="1.0" encoding="utf-8"?>
<!-- Generator: Adobe Illustrator 18.0.0, SVG Export Plug-In . SVG Version: 6.00 Build 0)  -->
<!DOCTYPE svg PUBLIC "-//W3C//DTD SVG 1.1//EN" "http://www.w3.org/Graphics/SVG/1.1/DTD/svg11.dtd">
<svg version="1.1" id="Layer_1" xmlns="http://www.w3.org/2000/svg" xmlns:xlink="http://www.w3.org/1999/xlink" x="0px" y="0px"
	 viewBox="0 0 512 512" enable-background="new 0 0 512 512" xml:space="preserve">
<g>
	<g>
		<g>
			<g>
				<g>
					<path d="M331.8,246.1c0-49.8,0-99.5,0-149.3c0-12.5,0-25.1,0-37.6c-2.5,2.5-5,5-7.5,7.5c39.9,0,79.9,0,119.8,0
						c-2.5-2.5-5-5-7.5-7.5c0,49.9,0,99.8,0,149.7c0,8.8,0,17.5,0,26.3c0,14.3-5.9,27.1-17.8,35.5c-13.4,9.6-28.6,9-44.2,9
						c-11.3,0-22.6,0-33.9,0c-5.5,0-11,0-16.4,0c-9.7,0-9.7,15,0,15c22.4,0,44.8,0.3,67.2,0c23.2-0.3,46.1-14,55.5-35.5
						c4.2-9.6,4.6-19.4,4.6-29.6c0-54.2,0-108.4,0-162.5c0-2.6,0-5.3,0-7.9c0-4.1-3.4-7.5-7.5-7.5c-39.9,0-79.9,0-119.8,0
						c-4.1,0-7.5,3.4-7.5,7.5c0,49.8,0,99.5,0,149.3c0,12.5,0,25.1,0,37.6C316.8,255.8,331.8,255.8,331.8,246.1L331.8,246.1z"/>
				</g>
			</g>
		</g>
		<g>
			<g>
				<path d="M454,51.7c-46.3,0-92.5,0-138.8,0c-12.5,0-12.2-18.6,0.2-18.6c9.1,0,18.3,0,27.4,0c30.6,0,61.3,0,91.9,0
					c6.1,0,12.2,0,18.3,0C464.8,33,465.8,51.2,454,51.7c-9.6,0.4-9.7,15.4,0,15c13.1-0.6,22.8-10.3,23.4-23.4
					c0.5-11.7-7-22.3-18.7-24.8c-7.1-1.5-15.4-0.5-22.6-0.5c-30.6,0-61.1,0-91.7,0c-9.5,0-19.1,0-28.6,0c-6.7,0-12.5,2-17.6,6.4
					c-8.8,7.5-9.3,22-3.7,31.4c6.7,11,18.4,10.8,29.5,10.8c13.1,0,26.2,0,39.4,0c30.2,0,60.3,0,90.5,0
					C463.7,66.7,463.7,51.7,454,51.7z"/>
			</g>
		</g>
		<g>
			<g>
				<path d="M344.7,279.8c-43.5,0-87.1,0-130.6,0c-48.2,0-96.4,0-144.6,0c-3.9,0-7.9-1.1-10.4-4.4c-5.4-7-2.6-18.4,6-21.2
					c3.9-1.3,9.2-0.5,13.2-0.5c23.2,0,46.4,0,69.6,0c59,0,118,0,177,0c6.3,0,12.5,0,18.8,0c4.5,0,8.5,1.6,11.1,5.5
					C360.2,267.4,354.6,279.4,344.7,279.8c-9.6,0.3-9.7,15.3,0,15c12.6-0.4,23.1-8.5,26.2-20.8c2.7-11-1.2-23-10.1-29.9
					c-6.9-5.2-14.5-5.4-22.6-5.4c-21.6,0-43.2,0-64.8,0c-60,0-120,0-179.9,0c-7.2,0-14.4,0-21.6,0c-13.1,0-23.7,5.6-28.8,18.3
					c-7.2,17.9,7.3,37.8,26,37.8c5.2,0,10.4,0,15.6,0c58.1,0,116.1,0,174.2,0c28.6,0,57.3,0,85.9,0
					C354.4,294.8,354.4,279.8,344.7,279.8z"/>
			</g>
		</g>
		<g>
			<g>
				<path d="M388.5,287.2c0,48.9,0,97.8,0,146.7c0,20.4,0,40.7,0,61.1c0,9.7,15,9.7,15,0c0-48.9,0-97.8,0-146.7
					c0-20.4,0-40.7,0-61.1C403.5,277.6,388.5,277.6,388.5,287.2L388.5,287.2z"/>
			</g>
		</g>
		<g>
			<g>
				<path d="M396,487.6c-48.4,0-96.9,0-145.3,0c-2.1,0-4.2,0-6.3,0c-9.7,0-9.7,15,0,15c48.4,0,96.9,0,145.3,0c2.1,0,4.2,0,6.3,0
					C405.6,502.6,405.6,487.6,396,487.6L396,487.6z"/>
			</g>
		</g>
		<g>
			<g>
				<path d="M251.6,497.1c16.4-46.9,32.8-93.8,49.2-140.7c2-5.6,3.9-11.2,5.9-16.9c3.2-9.2-11.3-13.1-14.5-4
					c-16.4,46.9-32.8,93.8-49.2,140.7c-2,5.6-3.9,11.2-5.9,16.9C234,502.2,248.4,506.1,251.6,497.1L251.6,497.1z"/>
			</g>
		</g>
		<g>
			<g>
				<g>
					<path d="M93.6,287.2c0.2,46,23.5,88.7,61.7,114.2c19,12.7,41.1,19.8,63.7,21.9c13.9,1.3,28.2,0.5,42.1,0.5c3.6,0,7.2,0,10.8,0
						c9.7,0,9.7-15,0-15c-30.2,0-61.1,2.6-89.5-9.6c-40.2-17.2-68.9-55.8-73.3-99.4c-0.4-4.2-0.6-8.3-0.6-12.5
						C108.5,277.6,93.5,277.6,93.6,287.2L93.6,287.2z"/>
				</g>
			</g>
		</g>
	</g>
	<g>
		<g>
			<path d="M139.8,49.9c4.3,0,8.6,0,12.9,0c4.2,0,8.9-0.5,13.1,0.1c7.7,1.2,13.1,7.6,13.3,15.3c0.1,3.2,0,6.4,0,9.5
				c0,10.8,0,21.6,0,32.5c0,5.5-1.8,9.9-6,13.6c-4.4,4-10.9,3.2-16.3,3.2c-9.7,0-9.7,15,0,15c7.9,0,15.1-0.2,22.2-4.2
				c9.5-5.2,14.7-15.7,15.1-26.3c0.3-11,0-22,0-33c0-3.9,0.1-7.8,0-11.8c-0.3-11.1-7.4-21.3-17.4-26.1c-10.8-5.1-25.2-3-36.9-3
				C130.1,34.9,130.1,49.9,139.8,49.9L139.8,49.9z"/>
		</g>
	</g>
	<g>
		<g>
			<path d="M71.9,124c-5.7,0-10.7,0.3-15.8-2.8c-4.7-2.9-6.5-8.4-6.5-13.6c0-10.7,0-21.3,0-32c0-10.5-0.6-21.9,12-25.4
				c4.1-1.1,9.2-0.4,13.4-0.4c4.6,0,9.3,0,13.9,0c9.7,0,9.7-15,0-15c-5.3,0-10.6,0-15.8,0c-6.5,0-13-0.3-19.2,2.2
				c-9.9,4-17.2,12.9-18.8,23.5c-0.7,4.7-0.4,9.5-0.4,14.3c0,11.3,0,22.5,0,33.8c0,10.6,5.5,19.6,14,25.6c6.9,4.9,15.3,4.8,23.3,4.8
				C81.6,139,81.6,124,71.9,124L71.9,124z"/>
		</g>
	</g>
	<g>
		<g>
			<path d="M132.3,42.4c-0.3,10-7.9,17.7-17.9,17.9c-10,0.3-17.7-8.3-17.9-17.9c-0.3-10,8.3-17.7,17.9-17.9
				C124.3,24.2,132,32.8,132.3,42.4c0.3,9.7,15.3,9.7,15,0c-0.5-18.3-14.7-32.4-32.9-32.9C96.1,8.9,81.9,24.8,81.4,42.4
				c-0.5,18.3,15.4,32.5,32.9,32.9c18.3,0.5,32.5-15.4,32.9-32.9C147.5,32.7,132.5,32.7,132.3,42.4z"/>
		</g>
	</g>
	<g>
		<g>
			<path d="M156.7,189.8c-28.3,0-56.5,0-84.8,0c2.5,2.5,5,5,7.5,7.5c0-33.9,0-67.9,0-101.8c-2.5,2.5-5,5-7.5,7.5
				c28.3,0,56.5,0,84.8,0c-2.5-2.5-5-5-7.5-7.5c0,33.9,0,67.9,0,101.8c0,9.7,15,9.7,15,0c0-33.9,0-67.9,0-101.8
				c0-4.1-3.4-7.5-7.5-7.5c-28.3,0-56.5,0-84.8,0c-4.1,0-7.5,3.4-7.5,7.5c0,33.9,0,67.9,0,101.8c0,4.1,3.4,7.5,7.5,7.5
				c28.3,0,56.5,0,84.8,0C166.4,204.8,166.4,189.8,156.7,189.8z"/>
		</g>
	</g>
	<g>
		<g>
			<path d="M71.9,183.6c28.3,0,56.5,0,84.8,0c9.7,0,9.7-15,0-15c-28.3,0-56.5,0-84.8,0C62.3,168.6,62.3,183.6,71.9,183.6L71.9,183.6
				z"/>
		</g>
	</g>
</g>
</svg>
